<?xml version="1.0" encoding="UTF-8"?>
<svg width="800px" height="1000px" viewBox="0 0 800 1000" version="1.1" xmlns="http://www.w3.org/2000/svg" xmlns:xlink="http://www.w3.org/1999/xlink">
    <!-- Generator: Sketch 51.1 (57501) - http://www.bohemiancoding.com/sketch -->
    <title>bull_DL</title>
    <desc>Created with Sketch.</desc>
    <defs></defs>
    <g id="bull_DL" stroke="none" stroke-width="1" fill="none" fill-rule="evenodd">
        <g id="logo-footer" transform="translate(517.000000, 693.000000)">
            <g>
                <path d="M110.812545,8.25651402 C110.904572,8.56348079 110.810146,8.81874549 110.573746,9.09365441 C110.548096,9.12348237 110.524607,9.14951827 110.482164,9.19539003 C110.410296,9.27306357 110.388406,9.29969141 110.394575,9.28699974 C110.158488,9.77253772 109.949286,10.3963755 109.78094,11.1092981 C109.323962,13.0450464 110.241419,14.6677006 112.137009,15.2172501 C114.194676,15.8138908 116.608374,14.6870388 117.500673,12.7424366 C118.556971,10.4412591 118.361229,8.87677042 116.832238,7.67717368 C114.960938,6.20902274 112.357851,6.27012948 111.072216,7.83985899 L110.795491,8.1777337 C110.794947,8.20051389 110.804056,8.228204 110.812545,8.25651402 Z M110.106083,6.26944954 C110.423589,5.88663707 110.955421,5.49967933 111.419965,5.30848582 C112.37958,4.91358991 113.68037,4.90617957 115.133698,5.23840657 C117.932917,5.87841333 120.108577,8.22064492 119.995807,10.6570534 C119.760531,15.7499925 113.426094,19.0246323 109.732148,15.5763745 C107.943744,13.9068501 107.553768,11.8021869 108.499361,9.2850154 C108.62423,8.95356867 108.851111,8.49010331 109.049811,8.18524994 C109.270059,7.84733807 109.481086,7.64146186 109.750777,7.55562368 C109.778602,7.54676715 109.806094,7.5393618 109.833231,7.53336632 C109.647627,7.16965375 109.747904,6.70130236 110.106083,6.26944954 Z" id="Fill-4" fill="#000000" fill-rule="nonzero"></path>
                <path d="M116,2.36382675 C116.035222,2.23410526 116.077249,2.03952302 116.14169,1.8509661 C116.280178,1.44230796 116.378641,1.03435869 116.377039,0.600890425 C116.376639,0.410561355 116.256963,0.110004457 116.623996,0.0412449782 C116.938196,-0.017590452 117.272408,-0.0501980398 117.512961,0.20711836 C117.655051,0.358460099 117.796741,0.518308165 117.8896,0.694814455 C118.216208,1.3175485 117.776729,2.53572545 117.114308,2.89086461 C116.612389,3.15987721 116.012808,2.911776 116,2.36382675" id="Fill-103" fill="#000000" fill-rule="nonzero"></path>
                <path d="M113.597281,1.30015424 C113.547641,1.6054057 113.484683,1.90995301 113.451993,2.21696486 C113.409214,2.61727733 113.068594,2.79366831 112.724342,2.93802021 C112.426905,3.06335991 112.146418,3.01090032 112.073774,2.6669203 C111.908307,1.88389925 112.059649,1.1040469 112.154086,0.329475719 C112.197269,-0.0278832593 112.773982,-0.106396611 113.167067,0.152380579 C113.512933,0.380527 113.619074,0.676272361 113.597281,1.30015424" id="Fill-107" fill="#000000" fill-rule="nonzero"></path>
                <path d="M112.19066,11.6823452 C110.632914,12.6206952 108.591708,13.9682577 107.051494,14.9237702 C106.603919,15.2015633 106.260092,15.3386205 105.847581,15.6483439 C105.453117,15.9444969 105.00264,16.1407116 104.673147,15.8744932 C104.334372,15.6006913 103.968388,15.4738054 104.253536,15.0032335 C104.507231,14.584149 104.804932,14.5525935 105.343775,14.3418539 C106.408054,13.9255633 108.032176,12.8044553 108.976827,12.2352987 C109.267132,12.0600815 109.780582,11.6912496 110.031699,11.4841022 C110.690685,10.9400907 110.546085,10.7856194 109.803565,10.2635599 C108.494872,9.34277154 106.87805,8.31351987 105.559045,7.40151231 C105.221301,7.16842154 104.87376,6.94291422 104.554064,6.69585398 C103.681603,6.022525 103.837029,5.29651112 105.037953,5.02270928 C105.314335,4.95964705 105.519044,5.02949445 105.664454,5.21269422 C106.875175,6.74015718 109.059218,7.93310366 110.770108,9.0590438 C111.354328,9.44340412 111.803432,9.85804585 112.62433,10.0292717 C113.067264,10.1214703 112.94712,10.4970498 112.994043,10.9392837 C113.057467,11.2214672 112.602656,11.4340876 112.19066,11.6823452 Z" id="chevron" fill="#000000" fill-rule="nonzero" transform="translate(108.500000, 10.500000) rotate(-2.000000) translate(-108.500000, -10.500000) "></path>
                <path d="M4.80555555,7.71270718 L2.78703703,7.71270718 L2.78703703,12.9005525 L2.01851852,12.9005525 L2.01851852,7.71270718 L0,7.71270718 L0,7.09944751 L4.80555555,7.09944751 L4.80555555,7.71270718 Z M9.97657951,10.2403315 L6.8654684,10.2403315 L6.8654684,12.9005525 L6.09694989,12.9005525 L6.09694989,7.09944751 L6.8654684,7.09944751 L6.8654684,9.62707182 L9.97657951,9.62707182 L9.97657951,7.09944751 L10.745098,7.09944751 L10.745098,12.9005525 L9.97657951,12.9005525 L9.97657951,10.2403315 Z M12.6568627,7.09944751 L16.1846405,7.09944751 L16.1846405,7.71270718 L13.4253813,7.71270718 L13.4253813,9.61049724 L15.953159,9.61049724 L15.953159,10.2237569 L13.4253813,10.2237569 L13.4253813,12.2872928 L16.2309368,12.2872928 L16.2309368,12.9005525 L12.6568627,12.9005525 L12.6568627,7.09944751 Z M20.7674291,7.09944751 C20.8847137,7.08287284 21.0158852,7.07044203 21.1609477,7.0621547 C21.3060102,7.05386736 21.4572432,7.04834254 21.6146514,7.04558011 C21.7720596,7.04281768 21.926379,7.04005525 22.0776143,7.03729282 C22.2288497,7.03453039 22.3692805,7.03314917 22.4989106,7.03314917 C23.0174317,7.03314917 23.4665011,7.10497164 23.8461328,7.24861878 C24.2257645,7.39226593 24.539033,7.59254015 24.7859476,7.84944751 C25.0328623,8.10635488 25.2165027,8.41436285 25.3368736,8.77348066 C25.4572445,9.13259848 25.5174291,9.52762215 25.5174291,9.95856354 C25.5174291,10.3508307 25.4603309,10.7278988 25.3461328,11.089779 C25.2319348,11.4516593 25.0513808,11.7720981 24.8044662,12.051105 C24.5575516,12.3301119 24.236567,12.5538666 23.8415032,12.7223757 C23.4464394,12.8908848 22.9680495,12.9751381 22.406318,12.9751381 C22.3075521,12.9751381 22.179467,12.9737569 22.0220588,12.9709945 C21.8646506,12.968232 21.7026152,12.9627072 21.5359477,12.9544199 C21.3692802,12.9461326 21.2149607,12.9392266 21.0729847,12.9337017 C20.9310087,12.9281767 20.8291578,12.9198895 20.7674291,12.9088398 L20.7674291,7.09944751 Z M22.5174291,7.64640884 L22.2535402,7.64640884 C22.1578608,7.64640884 22.0637259,7.64917122 21.9711328,7.65469613 C21.8785398,7.66022104 21.7936641,7.66574581 21.7165032,7.67127072 C21.6393424,7.67679563 21.5791578,7.6823204 21.5359477,7.6878453 L21.5359477,12.3287293 C21.566812,12.3342542 21.6254534,12.3383978 21.7118736,12.3411602 C21.7982938,12.3439227 21.887799,12.3466851 21.9803921,12.3494475 C22.0729851,12.3522099 22.1624904,12.3549724 22.2489106,12.3577348 C22.3353309,12.3604972 22.3939723,12.3618785 22.4248365,12.3618785 C22.8569374,12.3618785 23.2195881,12.2955808 23.5127995,12.1629834 C23.8060109,12.0303861 24.0405762,11.852211 24.2165032,11.628453 C24.3924302,11.404695 24.5174286,11.1477915 24.5915032,10.8577348 C24.6655778,10.5676781 24.7026143,10.2679574 24.7026143,9.95856354 C24.7026143,9.68784397 24.6686642,9.41574724 24.6007625,9.14226519 C24.5328607,8.86878315 24.4155783,8.62154807 24.2489106,8.40055249 C24.0822429,8.17955691 23.8584801,7.99861948 23.5776143,7.85773481 C23.2967486,7.71685014 22.9433571,7.64640884 22.5174291,7.64640884 Z M26.892157,10 C26.892157,9.03314434 27.1205495,8.29143904 27.5773422,7.77486188 C28.0341344,7.25828471 28.6853622,7 29.5310459,7 C29.9878381,7 30.3828957,7.07182247 30.7162311,7.21546961 C31.0495659,7.35911676 31.3257979,7.56215336 31.5449348,7.82458564 C31.7640716,8.08701791 31.9261071,8.40193186 32.0310459,8.76933702 C32.1359847,9.13674217 32.1884533,9.54695907 32.1884533,10 C32.1884533,10.9668557 31.9585171,11.708561 31.4986385,12.2251381 C31.0387594,12.7417153 30.3829019,13 29.5310459,13 C29.080426,13 28.6899981,12.9281775 28.3597496,12.7845304 C28.0295006,12.6408832 27.7548124,12.4378466 27.5356755,12.1754144 C27.3165387,11.9129821 27.1545032,11.5980681 27.0495644,11.230663 C26.9446256,10.8632578 26.892157,10.4530409 26.892157,10 Z M27.7069718,10 C27.7069718,10.3204436 27.7424651,10.624308 27.8134533,10.9116022 C27.884441,11.1988965 27.9940078,11.4516564 28.142157,11.6698895 C28.2903057,11.8881227 28.4801184,12.0621541 28.7116014,12.191989 C28.943084,12.3218238 29.2162295,12.3867403 29.5310459,12.3867403 C30.1051225,12.3867403 30.5557352,12.1919909 30.8828977,11.8024862 C31.2100598,11.4129815 31.3736385,10.8121587 31.3736385,10 C31.3736385,9.68508131 31.3381447,9.38259816 31.267157,9.09254144 C31.1961688,8.80248476 31.0850587,8.54834365 30.9338237,8.3301105 C30.7825881,8.11187735 30.5912321,7.93784595 30.3597496,7.80801105 C30.1282666,7.67817615 29.8520351,7.61325967 29.5310459,7.61325967 C28.9631416,7.61325967 28.5171585,7.80800912 28.1930829,8.19751381 C27.8690068,8.58701851 27.7069718,9.18784125 27.7069718,10 Z M33.5631807,10 C33.5631807,9.03314434 33.7915737,8.29143904 34.2483658,7.77486188 C34.7051585,7.25828471 35.3563864,7 36.2020695,7 C36.6588622,7 37.0539198,7.07182247 37.3872547,7.21546961 C37.7205896,7.35911676 37.9968216,7.56215336 38.2159584,7.82458564 C38.4350953,8.08701791 38.5971308,8.40193186 38.7020695,8.76933702 C38.8070083,9.13674217 38.8594769,9.54695907 38.8594769,10 C38.8594769,10.9668557 38.6295412,11.708561 38.1696621,12.2251381 C37.7097835,12.7417153 37.053926,13 36.2020695,13 C35.7514502,13 35.3610217,12.9281775 35.0307732,12.7845304 C34.7005248,12.6408832 34.425836,12.4378466 34.2066992,12.1754144 C33.9875623,11.9129821 33.8255268,11.5980681 33.7205881,11.230663 C33.6156493,10.8632578 33.5631807,10.4530409 33.5631807,10 Z M34.3779955,10 C34.3779955,10.3204436 34.4134893,10.624308 34.484477,10.9116022 C34.5554651,11.1988965 34.665032,11.4516564 34.8131807,11.6698895 C34.9613298,11.8881227 35.1511426,12.0621541 35.3826251,12.191989 C35.6141076,12.3218238 35.8872532,12.3867403 36.2020695,12.3867403 C36.7761467,12.3867403 37.2267594,12.1919909 37.5539214,11.8024862 C37.8810834,11.4129815 38.0446621,10.8121587 38.0446621,10 C38.0446621,9.68508131 38.0091688,9.38259816 37.9381806,9.09254144 C37.867193,8.80248476 37.7560829,8.54834365 37.6048473,8.3301105 C37.4536122,8.11187735 37.2622558,7.93784595 37.0307732,7.80801105 C36.7992907,7.67817615 36.5230587,7.61325967 36.2020695,7.61325967 C35.6341657,7.61325967 35.1881822,7.80800912 34.8641066,8.19751381 C34.540031,8.58701851 34.3779955,9.18784125 34.3779955,10 Z M40.5027233,7.09944751 C40.6200078,7.08287284 40.7511791,7.07044203 40.8962419,7.0621547 C41.0413041,7.05386736 41.1925371,7.04834254 41.3499456,7.04558011 C41.5073535,7.04281768 41.6616729,7.04005525 41.8129085,7.03729282 C41.9641436,7.03453039 42.1045747,7.03314917 42.2342048,7.03314917 C42.7527259,7.03314917 43.2017954,7.10497164 43.581427,7.24861878 C43.9610587,7.39226593 44.2743267,7.59254015 44.5212419,7.84944751 C44.7681565,8.10635488 44.9517969,8.41436285 45.0721678,8.77348066 C45.1925387,9.13259848 45.2527233,9.52762215 45.2527233,9.95856354 C45.2527233,10.3508307 45.1956251,10.7278988 45.081427,11.089779 C44.967229,11.4516593 44.786675,11.7720981 44.5397604,12.051105 C44.2928452,12.3301119 43.9718612,12.5538666 43.5767974,12.7223757 C43.1817336,12.8908848 42.7033432,12.9751381 42.1416122,12.9751381 C42.0428463,12.9751381 41.9147609,12.9737569 41.757353,12.9709945 C41.5999445,12.968232 41.437909,12.9627072 41.2712419,12.9544199 C41.1045742,12.9461326 40.9502547,12.9392266 40.8082789,12.9337017 C40.6663026,12.9281767 40.5644517,12.9198895 40.5027233,12.9088398 L40.5027233,7.09944751 Z M42.2527233,7.64640884 L41.9888344,7.64640884 C41.8931549,7.64640884 41.7990201,7.64917122 41.706427,7.65469613 C41.6138339,7.66022104 41.5289584,7.66574581 41.4517974,7.67127072 C41.3746364,7.67679563 41.3144517,7.6823204 41.2712419,7.6878453 L41.2712419,12.3287293 C41.3021061,12.3342542 41.3607475,12.3383978 41.4471678,12.3411602 C41.533588,12.3439227 41.6230932,12.3466851 41.7156863,12.3494475 C41.8082794,12.3522099 41.8977846,12.3549724 41.9842048,12.3577348 C42.0706251,12.3604972 42.1292665,12.3618785 42.1601307,12.3618785 C42.5922316,12.3618785 42.9548823,12.2955808 43.2480937,12.1629834 C43.5413051,12.0303861 43.7758705,11.852211 43.9517974,11.628453 C44.1277244,11.404695 44.2527228,11.1477915 44.3267974,10.8577348 C44.400872,10.5676781 44.4379085,10.2679574 44.4379085,9.95856354 C44.4379085,9.68784397 44.4039584,9.41574724 44.3360567,9.14226519 C44.2681549,8.86878315 44.150872,8.62154807 43.9842048,8.40055249 C43.8175371,8.17955691 43.5937743,7.99861948 43.3129085,7.85773481 C43.0320428,7.71685014 42.6786513,7.64640884 42.2527233,7.64640884 Z M50.7293025,12.9005525 L46.8959692,12.9005525 L46.8959692,7.09944751 L47.6644877,7.09944751 L47.6644877,12.2872928 L50.7293025,12.2872928 L50.7293025,12.9005525 Z M52.0206971,7.09944751 L55.5484749,7.09944751 L55.5484749,7.71270718 L52.7892156,7.71270718 L52.7892156,9.61049724 L55.3169934,9.61049724 L55.3169934,10.2237569 L52.7892156,10.2237569 L52.7892156,12.2872928 L55.5947712,12.2872928 L55.5947712,12.9005525 L52.0206971,12.9005525 L52.0206971,7.09944751 Z M63.9645968,12.9005525 L60.1312634,12.9005525 L60.1312634,7.09944751 L60.8997819,7.09944751 L60.8997819,12.2872928 L63.9645968,12.2872928 L63.9645968,12.9005525 Z M65.4319172,7.09944751 L66.2004357,7.09944751 L66.2004357,12.9005525 L65.4319172,12.9005525 L65.4319172,7.09944751 Z M72.1955335,8.42541436 C72.1955335,8.5635366 72.1708426,8.70441915 72.1214594,8.8480663 C72.0720767,8.99171344 71.9980031,9.12569001 71.8992372,9.25 C71.8004712,9.37431004 71.6739296,9.48342495 71.5196075,9.57734807 C71.365286,9.67127118 71.1831888,9.74309369 70.9733113,9.79281768 L70.9733113,9.82596685 C71.1584975,9.8535913 71.3359651,9.90055216 71.5057187,9.96685083 C71.6754728,10.0331495 71.8251626,10.1243088 71.9547927,10.2403315 C72.0844234,10.3563542 72.1893606,10.4972367 72.2696075,10.6629834 C72.349855,10.8287301 72.3899779,11.0248607 72.3899779,11.2513812 C72.3899779,11.5497252 72.3205345,11.8080099 72.1816446,12.0262431 C72.0427552,12.2444762 71.8606585,12.4226512 71.6353483,12.5607735 C71.4100386,12.6988957 71.1523251,12.8011047 70.8622001,12.8674033 C70.5720757,12.933702 70.2757819,12.9668508 69.9733113,12.9668508 L69.6029409,12.9668508 C69.4609651,12.9668508 69.3128185,12.9627072 69.1584964,12.9544199 C69.0041749,12.9461326 68.8498555,12.935083 68.6955335,12.9212707 C68.541212,12.9074585 68.4054111,12.8867405 68.2881261,12.859116 L68.2881261,7.14917127 C68.5165227,7.11602192 68.7819517,7.08839788 69.0844224,7.06629834 C69.386893,7.0441988 69.7171369,7.03314917 70.0751631,7.03314917 C70.3159054,7.03314917 70.5612732,7.05110479 70.8112742,7.08701657 C71.0612758,7.12292836 71.288125,7.19198844 71.4918298,7.2941989 C71.6955345,7.39640935 71.8637428,7.53867311 71.9964594,7.72099448 C72.1291765,7.90331584 72.1955335,8.13812012 72.1955335,8.42541436 Z M70.0473853,12.3701657 C70.2449172,12.3701657 70.4362737,12.3494477 70.6214594,12.308011 C70.8066456,12.2665744 70.9702243,12.2002767 71.1122001,12.109116 C71.2541765,12.0179553 71.3668298,11.906078 71.4501631,11.7734807 C71.533497,11.6408833 71.5751631,11.4834263 71.5751631,11.301105 C71.5751631,11.0745845 71.5242377,10.8922659 71.4223853,10.7541436 C71.320533,10.6160214 71.1878185,10.5082877 71.0242372,10.4309392 C70.8606564,10.3535908 70.677016,10.3011051 70.4733113,10.2734807 C70.2696065,10.2458562 70.0659049,10.2320442 69.8622001,10.2320442 L69.0566446,10.2320442 L69.0566446,12.3121547 C69.099855,12.3232045 69.1615829,12.3314917 69.2418298,12.3370166 C69.3220772,12.3425415 69.4084964,12.3480663 69.501089,12.3535912 C69.5936821,12.3591161 69.6893601,12.3632597 69.7881261,12.3660221 C69.886892,12.3687845 69.9733113,12.3701657 70.0473853,12.3701657 Z M69.5381261,9.6519337 C69.6430649,9.6519337 69.769607,9.64917132 69.9177557,9.64364641 C70.0659049,9.6381215 70.1893601,9.6298343 70.2881261,9.61878453 C70.4362752,9.57458541 70.5751626,9.52071855 70.7047927,9.45718232 C70.8344234,9.39364609 70.9501626,9.31906119 71.052015,9.23342541 C71.1538673,9.14778964 71.2341137,9.04834309 71.2927557,8.93508287 C71.3513982,8.82182265 71.3807187,8.69889567 71.3807187,8.56629834 C71.3807187,8.38397698 71.3421389,8.23342601 71.2649779,8.11464088 C71.1878174,7.99585576 71.0844234,7.90055285 70.9547927,7.82872928 C70.8251626,7.75690571 70.677016,7.70580124 70.5103483,7.67541436 C70.3436811,7.64502749 70.1739296,7.62983425 70.001089,7.62983425 C69.7973843,7.62983425 69.610658,7.63397785 69.4409038,7.64226519 C69.2711502,7.65055253 69.1430649,7.66298333 69.0566446,7.67955801 L69.0566446,9.6519337 L69.5381261,9.6519337 Z M74.0332243,7.15745856 C74.2677932,7.11878435 74.5378524,7.08839788 74.8434095,7.06629834 C75.1489666,7.0441988 75.428285,7.03314917 75.6813725,7.03314917 C75.9653246,7.03314917 76.2353838,7.0607732 76.4915576,7.1160221 C76.747732,7.17127099 76.9730381,7.26243029 77.1674836,7.38950276 C77.361929,7.51657523 77.5177917,7.68231943 77.6350762,7.88674033 C77.7523606,8.09116123 77.8110021,8.33977753 77.8110021,8.63259669 C77.8110021,9.08563762 77.6721147,9.45303725 77.3943354,9.73480663 C77.1165561,10.016576 76.7647078,10.2044194 76.3387799,10.2983425 L76.7832243,10.6049724 L78.3943354,12.9005525 L77.4961873,12.9005525 L75.7091502,10.3977901 L74.8017428,10.2734807 L74.8017428,12.9005525 L74.0332243,12.9005525 L74.0332243,7.15745856 Z M75.699891,7.62983425 L75.449891,7.62983425 C75.3634707,7.62983425 75.2801384,7.63259664 75.199891,7.63812155 C75.1196436,7.64364645 75.0440273,7.64917122 74.9730391,7.65469613 C74.902051,7.66022104 74.8449527,7.66850824 74.8017428,7.67955801 L74.8017428,9.81767956 L75.5239651,9.81767956 C75.949893,9.81767956 76.3017413,9.72375783 76.5795206,9.5359116 C76.8572999,9.34806538 76.9961873,9.0552506 76.9961873,8.65745856 C76.9961873,8.35911455 76.8819908,8.11326064 76.6535947,7.9198895 C76.4251986,7.72651837 76.1073004,7.62983425 75.699891,7.62983425 Z M82.722767,11.2928177 L80.3338781,11.2928177 L79.68573,12.9005525 L78.9264707,12.9005525 L81.3801744,7.00828729 L81.7320263,7.00828729 L84.1949892,12.9005525 L83.3894337,12.9005525 L82.722767,11.2928177 Z M80.5838781,10.6961326 L82.4912855,10.6961326 L81.7690633,8.93093923 L81.5375818,8.05248619 L81.5283226,8.05248619 L81.2968411,8.94751381 L80.5838781,10.6961326 Z M85.3937907,7.15745856 C85.6283596,7.11878435 85.8984187,7.08839788 86.2039758,7.06629834 C86.5095329,7.0441988 86.7888514,7.03314917 87.0419388,7.03314917 C87.325891,7.03314917 87.5959501,7.0607732 87.852124,7.1160221 C88.1082984,7.17127099 88.3336044,7.26243029 88.5280499,7.38950276 C88.7224954,7.51657523 88.878358,7.68231943 88.9956425,7.88674033 C89.112927,8.09116123 89.1715684,8.33977753 89.1715684,8.63259669 C89.1715684,9.08563762 89.0326811,9.45303725 88.7549018,9.73480663 C88.477123,10.016576 88.1252742,10.2044194 87.6993462,10.2983425 L88.1437906,10.6049724 L89.7549018,12.9005525 L88.8567536,12.9005525 L87.0697166,10.3977901 L86.1623092,10.2734807 L86.1623092,12.9005525 L85.3937907,12.9005525 L85.3937907,7.15745856 Z M87.0604573,7.62983425 L86.8104573,7.62983425 C86.7240371,7.62983425 86.6407047,7.63259664 86.5604573,7.63812155 C86.4802099,7.64364645 86.4045936,7.64917122 86.3336055,7.65469613 C86.2626178,7.66022104 86.2055196,7.66850824 86.1623092,7.67955801 L86.1623092,9.81767956 L86.8845314,9.81767956 C87.3104594,9.81767956 87.6623081,9.72375783 87.9400869,9.5359116 C88.2178663,9.34806538 88.3567536,9.0552506 88.3567536,8.65745856 C88.3567536,8.35911455 88.2425571,8.11326064 88.014161,7.9198895 C87.7857649,7.72651837 87.4678668,7.62983425 87.0604573,7.62983425 Z M92.1111111,10.5966851 L89.9722222,7.09944751 L90.8703704,7.09944751 L92.3888889,9.63535912 L92.5462963,10.140884 L92.5555556,10.140884 L92.7222222,9.61878453 L94.1759259,7.09944751 L95,7.09944751 L92.8796296,10.5883978 L92.8796296,12.9005525 L92.1111111,12.9005525 L92.1111111,10.5966851 Z" id="the-Doodle-Library" fill="#666666" fill-rule="nonzero" opacity="0.595278533"></path>
            </g>
        </g>
        <path d="M489.641339,605.387413 C489.65666,605.503595 489.671981,605.619778 489.687302,605.734683 C489.668151,605.621054 489.65283,605.504872 489.641339,605.387413 M312.329994,375.418764 C311.717927,378.065788 311.111339,380.715049 310.494486,383.362188 C309.911021,385.847681 309.377348,388.333174 308.913896,390.843746 C308.550028,392.802573 308.272978,394.768 308.007419,396.740027 C306.943904,408.165639 306.491942,419.61633 306.031043,431.07758 C305.462899,445.127281 305.358207,459.192821 305.332672,473.249122 C305.317352,480.477247 305.277773,487.701412 305.517798,494.925577 C305.646748,498.756114 305.946779,502.556291 306.245533,506.377588 C306.280365,506.822528 306.320154,507.267196 306.363956,507.711618 C308.341665,506.364023 310.38645,505.116376 312.464223,503.927707 C313.996297,503.054425 315.527095,502.27179 317.112792,501.503199 C320.199921,499.997936 323.357271,498.511824 326.662722,497.554278 C331.740271,496.077103 337.221267,495.155305 342.517137,495.558751 C345.530217,495.788562 348.507548,496.231587 351.484879,496.735895 C365.544214,499.11444 379.303518,503.388928 391.981433,509.981954 C398.195271,513.213354 404.35038,516.509867 410.334406,520.156204 C416.479301,523.900849 422.433963,527.921268 428.388625,531.95573 C434.19391,535.890607 439.903441,540.094875 445.289959,544.578745 C447.325064,546.269134 449.355062,547.935265 451.244621,549.790352 C454.232166,552.722997 457.034585,555.819064 459.568891,559.156432 C460.694966,560.637438 461.947437,562.083971 462.964989,563.639027 C463.972328,565.171101 464.97456,566.707005 465.981899,568.237803 C467.782086,570.99043 469.413745,573.883497 470.934329,576.795715 C471.679565,578.226368 472.490488,579.638775 473.154562,581.111301 C473.161591,577.649796 473.169744,574.188291 473.198352,570.726785 C473.248144,564.207809 473.198352,557.654361 473.622226,551.146876 C473.84693,547.675451 474.166112,544.248711 474.559345,540.792607 C475.003646,536.862836 475.782451,532.977751 476.559978,529.10288 C477.8316,522.748602 479.507945,516.430072 481.452402,510.255812 C483.721149,503.06017 486.519738,496.107106 489.691132,489.260011 C495.551316,476.617844 502.897612,464.428916 513.101227,454.812597 C514.786509,453.2269 516.651809,451.845479 518.487745,450.434694 C519.618927,449.561412 520.79607,448.689406 522.028114,447.960394 C525.090985,446.149993 528.227908,444.579617 531.469522,443.117763 C534.850299,441.602286 538.376623,440.160859 541.997425,439.313111 C545.353945,438.52537 548.724508,437.881899 552.13082,437.343119 C555.811629,436.764761 559.607343,436.231089 563.343051,436.181296 C566.543809,436.141718 569.750952,436.155762 572.952987,436.280881 C576.8036,436.430258 580.592931,436.744334 584.412903,437.293327 C585.270864,437.417169 586.121166,437.571654 586.968913,437.741459 C586.878266,435.985957 586.805492,434.229178 586.76719,432.474953 C586.657392,427.293988 586.628027,422.116854 586.652285,416.935889 C586.682926,411.359139 586.742932,405.793879 586.952316,400.223512 C587.17702,394.12841 587.86007,388.089484 588.932522,382.079922 C589.291283,380.074182 591.016143,378.155258 592.716745,377.156857 C593.984537,376.417631 595.432347,376.034612 596.886541,376.034612 C597.618107,376.034612 598.352225,376.13292 599.065917,376.329537 C601.12528,376.897681 602.911423,378.273994 603.988982,380.115037 C605.185277,382.159079 605.219749,384.199292 604.816302,386.462931 C604.532869,388.071609 604.28263,389.684118 604.037498,391.299179 C603.805133,394.079894 603.558725,396.854225 603.45914,399.645154 C603.335297,403.085938 603.249756,406.521614 603.215285,409.968782 C603.150172,415.98728 603.18592,422.001948 603.25997,428.021724 C603.335297,433.737638 603.554895,439.49696 604.292844,445.173296 C604.447328,446.350439 604.541806,447.745904 604.093674,448.848997 C603.424668,450.47938 603.081228,451.502039 601.838971,452.792812 C600.606928,454.069541 599.574055,454.498521 597.958993,455.141993 C594.786323,456.408507 590.902514,455.670558 587.700479,454.863666 C585.334701,454.271264 582.982967,453.763126 580.58527,453.369893 C572.540604,452.528529 564.368264,452.431498 556.328704,453.341805 C553.29392,453.825685 550.275734,454.368295 547.283082,455.067942 C544.573864,455.70503 541.980828,456.59491 539.401836,457.604802 C537.115215,458.622355 534.792846,459.646291 532.641558,460.917913 C530.610283,462.114207 528.6837,463.388382 526.799248,464.77491 C524.797338,466.515091 522.891182,468.308894 521.051416,470.223987 C519.618927,471.712653 518.30645,473.316224 517.004187,474.921072 C510.741833,483.669216 505.818767,493.270215 501.513639,503.107409 C496.580359,515.772557 493.115318,528.887113 490.82359,542.271059 C490.547817,544.630453 490.291194,546.978357 490.130326,549.350519 C489.92605,552.288271 489.821358,555.220917 489.716666,558.163776 C489.51622,563.754571 489.551968,569.359409 489.536648,574.950204 C489.51622,580.366086 489.526434,585.783246 489.507283,591.199128 C489.484302,596.219225 489.410252,601.240599 489.813698,606.245375 C489.844339,606.339853 489.878811,606.431777 489.915836,606.524978 C491.326621,610.738183 488.325032,615.421223 484.22035,616.548574 C482.419835,617.048778 480.47763,616.900585 478.771823,616.15387 C478.237748,616.456295 477.666062,616.694395 477.06901,616.858181 C475.118169,617.396961 472.993692,617.122464 471.248404,616.099804 C469.692072,615.186943 468.096161,613.421228 467.776979,611.581462 C467.17947,608.164936 466.345767,604.878637 465.249057,601.58723 C464.347686,598.875459 463.276511,596.233908 462.216826,593.583419 C461.376739,591.658112 460.5724,589.704717 459.593149,587.852184 C458.276842,585.353626 457.000113,582.839748 455.538259,580.421624 C453.952562,577.79284 452.346438,575.210018 450.656049,572.651454 C449.528698,570.948298 448.280057,569.33962 447.031416,567.725835 C447.142492,567.872659 447.253567,568.016929 447.364643,568.162476 C444.327305,564.517416 441.085691,560.931085 437.42531,557.898855 C435.898343,556.637447 434.371376,555.376039 432.844408,554.109524 C428.917191,551.155174 424.987421,548.191887 420.91721,545.440537 C416.110327,542.193816 411.336638,538.802825 406.373994,535.791023 C403.88565,534.279376 401.397306,532.763899 398.914069,531.252252 C396.539354,529.810826 394.045903,528.534097 391.622672,527.183318 C387.120927,524.674547 382.451931,522.486234 377.804639,520.273663 C375.612496,519.364632 373.424183,518.459432 371.174587,517.687011 C368.051709,516.619666 364.925001,515.687654 361.753607,514.7799 C356.388793,513.250379 350.854175,512.271128 345.357858,511.355714 C342.431596,511.054406 339.544913,510.966312 336.612267,511.230595 C333.485559,511.787248 330.486524,512.633719 327.53345,513.791712 C324.725924,515.067164 322.017983,516.525188 319.352174,518.076413 C317.114068,519.376123 315.006189,520.845638 312.874053,522.307492 C311.736488,523.212692 310.597646,524.11917 309.462634,525.023094 C309.350501,525.112466 309.23906,525.202863 309.128235,525.294157 C309.582985,527.634453 310.117738,529.962735 310.594071,532.297728 C311.791642,538.15969 313.183276,543.986013 314.50469,549.817615 C315.771205,555.401065 317.087512,560.964715 318.468933,566.517805 C319.197945,569.452086 320.06995,572.344127 320.902377,575.248049 C321.549679,577.494628 322.412747,579.689729 323.197935,581.89143 C324.0393,583.859497 324.880664,585.822284 325.835657,587.736232 C326.977052,590.02505 328.159303,592.283509 329.406667,594.520849 C330.652754,596.754229 331.895011,598.986288 333.11684,601.234188 C334.001613,602.868304 334.913197,604.4813 335.965221,605.999259 C336.27036,606.393928 336.572944,606.789918 336.866592,607.193827 C338.241628,608.523031 338.941276,610.78677 338.941276,612.659799 C338.936169,614.098561 338.582515,615.439644 337.889251,616.681731 C336.876806,618.466323 335.206845,619.796847 333.281538,620.343312 C331.914162,620.724782 330.548062,620.724782 329.181962,620.343312 C327.301341,620.0384 325.676066,618.533641 324.493815,617.057921 C322.334867,614.371793 320.579365,611.51539 318.947706,608.468912 C317.337751,605.462034 315.67162,602.486834 314.060389,599.486555 C312.37,596.33052 310.943894,593.072848 309.53694,589.772937 C308.684085,587.777151 307.935922,585.765525 307.223507,583.714301 C306.744734,582.332298 306.211062,580.960855 305.811446,579.552453 C304.764528,575.865792 303.736762,572.194972 302.823901,568.467392 C301.92636,564.816371 301.078613,561.15083 300.241079,557.480009 C298.75843,551.000256 297.230591,544.516909 295.89489,538.006003 C294.383975,539.570585 292.897618,541.159471 291.478635,542.802816 C289.45885,545.139229 287.5195,547.502454 285.60313,549.912917 C284.577917,551.374772 283.551427,552.835349 282.521107,554.29848 C281.54441,555.690114 280.72092,557.226019 279.828487,558.677659 C278.107456,561.485185 276.681351,564.496988 275.239924,567.450061 C272.427291,573.217044 269.795953,579.069568 267.265477,584.966778 C264.85246,590.787383 262.473915,596.622033 260.17325,602.484771 C259.056112,605.333152 258.118994,608.24537 256.981428,611.082261 C256.32902,612.724134 255.685549,614.459208 254.683317,615.935106 C254.244122,616.583685 253.58533,617.441646 252.986545,618.074904 C251.869407,619.252047 250.75227,619.696349 249.281478,620.2696 C248.503951,620.578568 247.640882,620.638575 246.803348,620.628361 C245.037632,620.607933 244.224356,620.178952 242.65398,619.476752 C241.466623,618.948186 239.995831,617.227156 239.506844,616.084484 C238.897845,614.648164 238.643776,614.124705 238.45482,612.743285 C238.285015,611.54699 238.094782,610.330268 238.055204,609.117376 C238.005411,607.437201 238.04499,605.760856 238.125424,604.080681 C238.279908,601.019086 238.618241,597.966428 239.007643,594.923984 C239.859221,588.353939 240.797617,581.796661 241.692604,575.231722 C242.526307,568.241633 243.335753,561.234947 243.834954,554.209109 C244.323941,547.336479 244.723557,540.47917 244.852507,533.596326 C244.992947,526.574319 244.893362,519.562525 244.698023,512.545625 C244.318834,498.985491 243.251489,485.454721 242.873578,471.898417 C242.668024,464.428278 242.533968,456.967076 242.51354,449.49183 C242.494389,442.998389 242.748458,436.510054 242.952735,430.021719 C243.150395,423.745998 243.224039,417.470278 243.256369,411.190261 C242.092298,411.628304 240.908779,412.011323 239.704993,412.303918 C236.777454,413.011226 233.710752,413.57554 230.693842,413.709596 C227.596499,413.850036 224.574482,413.585754 221.506503,413.131238 C218.724512,412.722685 215.975715,412.113686 213.322673,411.17146 C210.465354,410.153907 207.558243,409.041877 204.919245,407.535337 C200.680506,405.106999 196.640937,402.054341 193.399323,398.378639 C189.967477,394.47951 186.845875,390.21013 184.491588,385.566668 C182.227948,381.098118 180.237528,376.401033 178.981227,371.543081 C177.639386,366.350626 176.661411,361.039435 176.218387,355.693772 C175.839198,351.189474 175.964318,346.751565 176.512034,342.267694 C177.081455,337.599975 177.929203,332.90672 179.324667,328.413913 C179.973245,326.323908 180.75588,324.218582 181.704489,322.253697 C182.432225,320.73822 183.245501,319.43085 184.347318,318.124757 C186.053027,316.112633 188.647339,315.001879 191.254419,315.001879 C191.961727,315.001879 192.672865,315.083589 193.363575,315.252118 C194.391341,315.44618 195.364209,315.801111 196.287283,316.314356 C197.10439,316.918248 197.912559,317.536185 198.710514,318.169442 C199.638696,319.186995 200.596242,320.259447 201.308657,321.441698 C202.670926,323.700231 203.802108,326.183468 204.589849,328.702453 C206.061917,333.419965 206.875194,338.52305 206.79476,343.470373 C206.684961,350.20767 205.323968,356.915602 203.36802,363.354144 C202.401537,366.556179 201.428669,369.762045 200.505595,372.984508 C200.040865,374.6034 199.637419,376.25804 199.131835,377.875655 C200.430268,380.307823 201.887015,382.648066 203.523781,384.884895 C205.309924,387.04512 207.232678,389.040646 209.377582,390.835727 C211.39992,392.263109 213.506522,393.497706 215.747181,394.551007 C218.688763,395.686019 221.689075,396.54398 224.797909,397.08659 C227.199436,397.316401 229.566491,397.347043 231.970571,397.131276 C234.352946,396.713785 236.659995,396.127767 238.926188,395.29534 C239.360276,395.077019 239.78032,394.847208 240.19781,394.596969 C240.579552,394.231825 240.939589,393.850083 241.300903,393.431316 C242.673386,391.850726 245.07236,391.028513 247.111295,391.028513 C248.498647,391.028513 249.857929,391.383544 251.059123,392.038215 C251.119333,392.015201 251.180038,391.99208 251.241257,391.968823 C252.55501,391.476006 253.855997,390.965315 255.155707,390.441856 C259.656175,388.507612 264.163027,386.454633 268.322609,383.889685 C272.803926,381.124291 277.054155,378.113765 281.239272,374.93088 C283.928062,372.824278 286.669198,370.726613 289.089876,368.314873 C291.667591,365.740988 294.092098,363.04326 296.496178,360.304678 C297.558417,359.093062 298.550435,357.7359 299.767157,356.668555 C301.26859,355.347141 302.176344,354.923267 304.055688,354.205745 C305.502222,353.656752 307.398164,353.910821 308.843421,354.169997 C310.250375,354.425343 311.606261,355.147971 312.843411,355.866769 C315.523265,357.426931 318.162263,359.058591 320.967235,360.374898 C323.13512,361.163916 325.342584,361.697589 327.610054,362.074223 C328.982537,362.217217 330.353744,362.329569 331.730057,362.424047 C345.475317,363.357336 359.224408,363.576933 372.999032,363.376487 C379.802719,363.276902 386.62045,363.302436 393.42286,363.062411 C397.113882,362.928355 400.788307,362.784085 404.469115,362.538953 C407.419635,362.342337 410.352281,362.029538 413.290033,361.714186 C414.961271,361.442243 416.633785,361.1703 418.308853,360.898356 C420.174154,360.599602 422.02924,360.071036 423.87539,359.650993 C427.18467,358.897723 430.398196,357.723132 433.590018,356.563863 C435.261255,355.80804 436.909512,355.026682 438.552662,354.180211 C440.541805,353.157551 442.427533,351.921678 444.317091,350.729213 C447.468058,348.737517 450.573061,346.607933 453.596355,344.405577 C454.608801,342.745829 456.633692,341.489528 458.410898,340.999265 C459.164168,340.797542 459.918715,340.69668 460.673261,340.69668 C461.427808,340.69668 462.181078,340.797542 462.934348,340.999265 C466.55515,341.99639 469.233727,345.428236 469.189041,349.208629 C469.153293,352.10042 468.151061,354.689625 466.206603,356.828146 C465.084359,358.070403 463.66719,359.027949 462.311304,360.01103 C461.178846,360.828136 460.032344,361.636306 458.884565,362.444475 C456.317063,364.244662 453.722751,366.080598 451.01481,367.671402 C445.255487,371.052179 439.191026,373.854598 432.761421,375.745433 C426.133923,377.694998 419.391519,378.956406 412.518889,379.685418 C406.059919,380.373574 399.621377,380.708077 393.133042,380.922568 C386.236154,381.145995 379.318839,381.091096 372.415567,381.161316 C365.798283,381.231536 359.174615,381.271115 352.562438,381.041303 C345.410204,380.802555 338.273291,380.457838 331.141485,379.905015 C327.127451,379.59094 322.952548,379.236009 319.087891,378.049928 C316.804433,377.346387 314.495067,376.49469 312.329994,375.418764 Z M294.438035,386.273193 C291.857232,388.296661 289.277065,390.319567 286.62579,392.248427 C282.002755,395.604946 277.22013,398.741869 272.073637,401.249364 C267.988106,403.23723 263.836184,405.046354 259.597445,406.651202 C259.593615,407.149126 259.592338,407.647051 259.589785,408.142421 C259.570634,410.820998 259.565527,413.498298 259.545099,416.171767 C259.505521,421.233996 259.390615,426.296225 259.20549,431.353347 C258.956528,438.205549 258.786723,445.052645 258.80715,451.915061 C258.822471,459.057081 258.996106,466.193994 259.196553,473.334737 C259.390615,480.411643 259.874495,487.498764 260.248577,494.566733 C260.607338,501.384464 260.837149,508.206025 261.020998,515.033969 C261.375928,528.424299 261.125689,541.84527 259.90386,555.185807 C259.63064,558.165691 259.34976,561.144299 259.044622,564.120353 L259.479986,563.201109 C261.729582,558.447848 264.02897,553.709908 266.802025,549.231144 C270.851808,542.693017 275.648477,536.743462 280.700492,530.958605 C282.821138,528.534097 285.129464,526.255137 287.399487,523.976176 C289.028689,522.335898 290.671238,520.70296 292.362839,519.125131 C292.153754,517.747457 291.960805,516.366808 291.787859,514.982436 C291.314192,511.192818 290.835419,507.42432 290.540495,503.618862 C290.24174,499.715728 290.077042,495.842952 289.951923,491.923978 C289.728495,484.701133 289.897024,477.450569 289.937879,470.222444 C289.977458,463.095956 290.087256,455.970788 290.221313,448.844301 C290.351539,442.002925 290.595394,435.16023 290.895425,428.328094 C291.214608,421.151448 291.508255,413.964242 292.0215,406.796836 C292.321531,402.645548 292.640713,398.4903 293.208858,394.370691 C293.581057,391.667626 293.928283,388.954566 294.438035,386.273193 Z M547.436241,274.549627 C549.097265,272.840087 551.351968,272 553.611778,272 C555.900952,272 558.193957,272.860515 559.880515,274.549627 C562.593563,277.258845 563.381305,281.90103 561.256828,285.212864 C560.788269,285.945706 560.289068,286.659398 559.782207,287.367982 C559.277899,289.180937 558.182466,290.684923 556.76019,291.738224 C555.597091,293.561392 554.448035,295.390945 553.272168,297.207729 C549.59902,302.880234 545.413903,308.322928 542.561692,314.474207 C541.581164,316.995746 540.785762,319.5658 540.266134,322.221396 C540.163995,323.466206 540.148675,324.689312 540.235492,325.932846 C540.47424,327.069134 540.784486,328.172228 541.171334,329.266384 C541.667982,330.249465 542.222082,331.182754 542.841295,332.091785 C543.746496,333.143809 544.706596,334.111569 545.763727,335.011663 C546.665097,335.634706 547.583065,336.201574 548.552102,336.700775 C549.20068,336.912712 549.847982,337.0889 550.511881,337.233171 C551.623911,337.28807 552.715514,337.267642 553.821161,337.182101 C557.102354,336.556504 560.197144,335.463625 563.335343,334.308185 C565.505781,333.382557 567.67622,332.431394 569.734306,331.284892 C572.921021,329.502579 576.013258,327.658983 578.965054,325.512802 C581.434247,323.54281 583.842157,321.405566 585.82364,318.956801 C586.361143,318.292902 586.898645,317.632833 587.434872,316.970211 C588.845657,314.991282 590.087914,312.9549 591.134831,310.766587 C591.853629,308.800425 592.388578,306.816389 592.767767,304.758302 C593.000131,302.306983 593.006515,299.865878 592.960553,297.396685 C592.945232,296.663843 592.924804,295.934831 592.905654,295.201989 C592.890333,294.573838 592.866075,293.930367 592.905654,293.302217 C592.945232,292.379142 593.049924,291.457344 593.229943,290.544483 C593.2542,290.335099 593.284842,290.125716 593.314207,289.916332 C593.818514,288.370214 594.341973,286.728341 595.618702,285.611204 C596.82521,284.554072 597.897662,283.687174 599.483359,283.247979 C601.303974,282.748778 603.353124,282.884111 605.084368,283.611847 C606.904983,284.370223 608.715384,285.048166 610.301081,286.235524 C611.761658,287.32202 613.17372,288.420006 614.419807,289.751634 C615.377353,290.773017 616.280001,291.840362 617.15839,292.933242 C618.88325,295.067932 620.365532,297.237094 621.487776,299.750973 C623.392656,304.024183 624.360416,308.852771 623.876536,313.544748 C623.362014,318.532927 622.414681,323.449609 620.648966,328.153077 C619.193495,332.038162 617.702276,335.907926 616.001674,339.698534 C612.325972,347.897685 607.213951,355.513371 600.311956,361.367171 C596.75116,364.385358 592.945232,367.312896 588.960562,369.770599 C586.058558,371.556742 583.145063,373.406722 580.052827,374.853255 C576.183062,376.663656 572.287763,378.334894 568.323521,379.930805 C562.094362,382.448514 555.496229,383.865682 548.868731,384.777267 C541.512221,385.794819 534.126346,385.59565 526.774943,384.653424 C523.164354,384.188695 519.698036,383.47628 516.276403,382.228916 C512.97989,381.027515 509.583792,379.706101 506.686895,377.691423 C503.380168,375.392035 500.492208,372.828364 497.988543,369.686335 C496.567544,367.910405 495.210382,366.096174 493.883861,364.250024 C491.929189,361.526762 490.243907,358.624758 488.662041,355.672962 C487.400633,353.323781 486.293709,350.724362 485.461282,348.216867 C484.009642,343.847901 483.122315,339.13422 483.167001,334.516292 C483.186152,332.372665 483.345743,330.246912 483.615133,328.117329 C483.874309,326.0835 484.079862,323.988388 484.598214,321.994138 C485.560867,318.268644 486.762269,314.627414 488.51777,311.176417 C489.959197,308.338249 491.694271,305.779685 493.614471,303.256869 C495.903645,300.24379 498.372838,297.386471 501.125465,294.793436 C504.142375,291.960375 507.354624,289.422238 510.671565,286.953045 C515.284385,283.522476 520.331293,280.668987 525.697384,278.589196 C528.141042,277.641864 530.654921,276.824757 533.237743,276.351091 C535.691615,275.896576 538.215708,275.457381 540.714265,275.36801 C542.648509,275.296513 544.561049,275.398652 546.459544,275.631016 C546.772343,275.259488 547.097908,274.898174 547.436241,274.549627 Z M518.4711,364.84881 C518.629414,364.9152 518.787729,364.98159 518.946043,365.046703 C518.787729,364.98159 518.629414,364.9152 518.4711,364.84881 Z M535.631609,292.840041 C533.978245,293.261361 532.35297,293.773329 530.740462,294.378499 C526.053591,296.52468 521.836556,299.320715 517.698679,302.365713 C515.733794,304.034397 513.835298,305.729893 511.962338,307.510929 C510.229817,309.155355 508.704126,311.03853 507.166945,312.870636 C506.906492,313.214076 506.651147,313.560069 506.407291,313.913723 C504.969695,316.024155 503.717224,318.190764 502.646049,320.487598 C501.654031,323.147024 500.972258,325.829431 500.436032,328.610146 C500.129617,331.598967 500.007051,334.550764 500.26495,337.56129 C500.700315,339.939835 501.347616,342.234117 502.190257,344.497756 C503.329099,346.898006 504.557312,349.212715 505.952776,351.487845 C507.188649,353.494863 508.545812,355.415063 509.923402,357.322495 C511.442709,359.176305 513.001595,360.939467 514.817103,362.527717 C516.462806,363.67039 518.191496,364.63432 520.015942,365.480791 C521.742079,366.161287 523.509071,366.767733 525.304151,367.197991 C526.929427,367.584839 528.549595,367.863166 530.183808,368.108298 C533.779076,368.410883 537.347532,368.594732 540.953014,368.603669 C543.569031,368.611329 546.16079,368.335556 548.752549,368.01382 C552.052892,367.370349 555.391537,366.754966 558.588466,365.691451 C560.283961,365.128414 562.029249,364.644533 563.690273,363.985742 C565.064033,363.444409 566.440347,362.901799 567.817937,362.356636 C570.943368,360.933083 574.109655,359.522298 577.051238,357.742539 C580.389883,355.721477 583.682566,353.664668 586.823319,351.348682 C589.993436,348.800332 592.9031,346.033661 595.497413,342.895462 C598.221951,339.14571 600.364302,335.104864 602.274288,330.878892 C604.560909,325.350658 606.730071,319.810932 607.734856,313.894572 C607.814013,313.005969 607.857422,312.123749 607.858699,311.242807 C607.227995,313.875421 606.336838,316.451859 605.144374,318.946587 C603.138633,323.150854 600.291528,326.726971 597.374204,330.327346 C595.812765,332.257759 593.952571,334.042626 592.063013,335.643644 C589.933429,337.438724 587.74384,339.238911 585.40998,340.760772 C582.462014,342.675865 579.519154,344.536058 576.357974,346.07707 C572.582688,347.911729 568.742288,349.548495 564.802304,351.003965 C563.031481,351.65765 561.212143,352.230901 559.35578,352.61009 C556.862329,353.123335 554.209287,353.637856 551.645616,353.547209 C546.928103,353.383787 542.150585,352.261543 538.205494,349.543388 C536.070804,348.076427 533.862063,346.535415 532.111668,344.615215 C530.550229,342.905676 528.978576,341.079954 527.802709,339.07932 C525.467573,335.125292 524.111687,330.830377 523.657171,326.277563 C523.368631,323.375559 523.638021,320.456957 524.187014,317.599638 C524.575139,315.600281 525.053913,313.614968 525.722918,311.684555 C527.034119,307.904161 528.590451,304.094403 530.684286,300.667664 C532.296794,298.037603 533.968032,295.442014 535.631609,292.840041 Z" id="bull" fill="#2C2C2C"></path>
    </g>
</svg>