<svg height="511pt" viewBox="0 -49 511.998 511" width="511pt" xmlns="http://www.w3.org/2000/svg"><path d="m169.789062 246.917969c0-20.261719 16.425782-36.683594 36.683594-36.683594 25.328125 0 45.859375 20.53125 45.859375 45.855469 0 31.660156-25.664062 57.324218-57.320312 57.324218-39.574219 0-71.65625-32.082031-71.65625-71.652343 0-49.46875 40.101562-89.566407 89.566406-89.566407 61.832031 0 111.957031 50.125 111.957031 111.957032 0 77.289062-62.65625 139.945312-139.945312 139.945312-96.613282 0-174.933594-78.320312-174.933594-174.933594 0-120.765624 97.898438-218.667968 218.667969-218.667968 150.957031 0 273.332031 122.378906 273.332031 273.335937v79.683594l-3.480469 1.332031c-65.925781 25.242188-138.929687 24.765625-204.519531-1.328125" fill="#ffc66c"/><path d="m106.339844 57.894531c1.878906 0 3.773437-.527343 5.464844-1.628906.046874-.03125.171874-.117187.222656-.148437 4.566406-3.105469 5.789062-9.347657 2.6875-13.914063-3.105469-4.570313-9.289063-5.78125-13.855469-2.679687-4.625 3.023437-5.921875 9.222656-2.898437 13.84375 1.917968 2.933593 5.117187 4.527343 8.378906 4.527343zm0 0"/><path d="m429.015625 83.484375c-49.089844-49.085937-113.023437-77.925781-181.671875-82.363281-.332031-.039063-.667969-.058594-1.003906-.0625-5.859375-.359375-11.75-.558594-17.671875-.558594-32.078125 0-63.105469 6.511719-92.222657 19.359375-5.050781 2.230469-7.339843 8.132813-5.109374 13.1875 2.226562 5.050781 8.132812 7.339844 13.183593 5.109375 26.558594-11.714844 54.867188-17.660156 84.148438-17.660156 3.242187 0 6.46875.082031 9.6875.199218 9.605469 41.234376 3.1875 84.988282-17.949219 121.734376-2.476562-.148438-4.96875-.234376-7.484375-.234376-26.679687 0-50.9375 10.546876-68.832031 27.691407-.484375.390625-.933594.832031-1.34375 1.3125-3.234375 3.214843-6.242188 6.65625-9.011719 10.285156-25.871094-23.945313-59.832031-37.761719-95.265625-38.511719 10.871094-23.960937 26.371094-45.878906 46.0625-64.695312 3.992188-3.816406 4.136719-10.144532.320312-14.136719-3.816406-3.996094-10.144531-4.140625-14.136718-.324219-22.113282 21.128906-39.503906 45.992188-51.695313 73.898438-12.621093 28.898437-19.019531 59.664062-19.019531 91.449218 0 50.902344 20.675781 97.066407 54.0625 130.539063.5625.730469 1.226562 1.382813 1.980469 1.941406 33.332031 32.4375 78.8125 52.453125 128.890625 52.453125 40.324218 0 76.980468-16.007812 103.957031-41.996094.449219.265626.914063.507813 1.410156.707032 34.65625 13.789062 71.148438 20.6875 107.652344 20.6875 35.246094 0 70.511719-6.433594 104.140625-19.308594l3.480469-1.332031c3.867187-1.476563 6.421875-5.195313 6.421875-9.335938v-79.6875c.003906-75.683593-29.46875-146.832031-82.980469-200.347656zm-169.855469-61.210937c71.78125 8.316406 134.855469 45.597656 177.1875 99.839843-34.171875 34.925781-79.261718 58.617188-127.4375 66.890625-16.703125-21.289062-40.324218-36.898437-67.445312-43.429687 19.691406-37.808594 25.957031-81.503907 17.695312-123.300781zm-46.238281 139.921874c38.25 0 71.644531 21.175782 89.085937 52.417969-13.699218 8.015625-29.40625 11.984375-45.285156 11.441407-8.605468-16.382813-25.78125-27.589844-45.535156-27.589844-7.296875 0-14.242188 1.539062-20.535156 4.292968-4.585938-10.914062-12.425782-20.296874-22.492188-26.738281 12.761719-8.714843 28.175782-13.824219 44.761719-13.824219zm29.667969 87.671876c0 17.3125-14.085938 31.398437-31.402344 31.398437-17.3125 0-31.398438-14.085937-31.398438-31.398437 0-17.316407 14.085938-31.402344 31.398438-31.402344 17.316406 0 31.402344 14.085937 31.402344 31.402344zm-90.109375-59.761719 2.183593 1.152343c9.304688 4.910157 16.171876 13.476563 19.050782 23.480469-8.625 9.199219-13.925782 21.550781-13.925782 35.128907 0 27.691406 22.015626 50.328124 49.460938 51.351562-4.496094 1.421875-9.277344 2.195312-14.238281 2.195312-33.996094 0-61.652344-27.65625-61.652344-61.652343-.003906-19.707031 7.214844-37.746094 19.121094-51.65625zm-132.480469 39.058593c0-22.914062 3.644531-45.195312 10.648438-66.230468h4.785156c32.828125 0 64.378906 13.039062 87.617187 35.996094-6.210937 12.980468-9.695312 27.503906-9.695312 42.832031 0 10.414062 1.984375 20.371093 5.554687 29.539062-28.664062 10.722657-50.976562 33.511719-61.050781 62.894531-23.636719-28.546874-37.859375-65.160156-37.859375-105.03125zm164.933594 164.933594c-42.925782 0-82.066406-16.488281-111.441406-43.457031l2.917968-8.894531c8.222656-25.070313 27.449219-44.324219 52.132813-52.648438 14.820312 20.75 39.082031 34.3125 66.464843 34.3125 5.105469 0 10.074219-.589844 14.855469-1.671875 7.949219 22.515625 25.074219 40.980469 47.042969 50.550781-20.621094 13.769532-45.375 21.808594-71.972656 21.808594zm90.136718-36.4375-5.0625-1.714844c-19.554687-6.625-34.910156-22.171874-41.5-41.496093 20.191407-11.632813 33.824219-33.425781 33.824219-58.359375 0-.25-.019531-.496094-.035156-.742188.191406-1.800781.292969-3.628906.292969-5.480468 0-1.277344-.0625-2.542969-.152344-3.796876 16.660156-.460937 32.988281-4.917968 47.589844-13.011718 3.148437 9.804687 4.855468 20.253906 4.855468 31.09375-.003906 36.683594-15.285156 69.859375-39.8125 93.507812zm216.929688-1.042968c-9.21875 3.410156-18.566406 6.292968-28 8.667968v-81.453125c0-5.523437-4.476562-10-10-10s-10 4.476563-10 10v85.691407c-47.023438 8.132812-95.523438 3.726562-140.871094-13.207032 19.886719-25.445312 31.75-57.445312 31.75-92.164062 0-17.589844-3.746094-34.316406-10.480468-49.4375-.191407-.539063-.425782-1.070313-.714844-1.582032-.941406-2.035156-1.9375-4.039062-2.988282-6.011718 47.992188-9.953125 92.726563-34 127.496094-68.558594 27.664063 41.667969 43.808594 91.613281 43.808594 145.269531zm0 0"/><path d="m449.5 249.632812c-5.523438 0-10-4.480468-10-10v-.167968c0-5.523438 4.476562-10 10-10s10 4.476562 10 10v.167968c0 5.519532-4.476562 10-10 10zm0 0"/></svg>